<?xml version="1.0" standalone="no"?>
<!DOCTYPE svg PUBLIC "-//W3C//DTD SVG 20010904//EN"
 "http://www.w3.org/TR/2001/REC-SVG-20010904/DTD/svg10.dtd">
<svg version="1.0" xmlns="http://www.w3.org/2000/svg"
 width="16.000000pt" height="16.000000pt" viewBox="0 0 16.000000 16.000000"
 preserveAspectRatio="xMidYMid meet">
<metadata>
Created by potrace 1.11, written by Peter Selinger 2001-2013
</metadata>
<g transform="translate(0.000000,16.000000) scale(0.010667,-0.010667)"
fill="#000000" stroke="none">
<path d="M595 1402 c-225 -24 -457 -201 -534 -406 -95 -256 -44 -522 137 -711
98 -102 202 -159 348 -190 100 -21 188 -19 295 9 61 16 99 21 110 16 145 -78
346 -43 457 80 129 143 120 389 -19 514 -43 39 -49 49 -55 97 -37 311 -267
545 -576 589 -67 10 -87 10 -163 2z"/>
</g>
</svg>
